<svg xmlns="http://www.w3.org/2000/svg" style="display: none;">
  <symbol id="icon-play-big" viewBox="0 0 220 220" fill="none">
     <path d="M110 8.89168C130.003 8.88778 149.558 14.816 166.191 25.9266C182.825 37.0372 195.79 52.831 203.446 71.3106C211.103 89.7901 213.107 110.125 209.206 129.744C205.304 149.363 195.672 167.384 181.528 181.528C167.384 195.672 149.363 205.304 129.744 209.206C110.125 213.107 89.7901 211.103 71.3106 203.446C52.8311 195.79 37.0372 182.825 25.9266 166.191C14.816 149.558 8.88783 130.003 8.89174 110C8.92833 83.1956 19.5925 57.4996 38.546 38.546C57.4996 19.5925 83.1956 8.92828 110 8.89168ZM110 0C88.2441 0 66.9767 6.45139 48.8873 18.5383C30.7979 30.6253 16.6989 47.805 8.37331 67.9048C0.0476618 88.0047 -2.1307 110.122 2.11367 131.46C6.35805 152.798 16.8345 172.398 32.2183 187.782C47.602 203.166 67.2022 213.642 88.5401 217.886C109.878 222.131 131.995 219.952 152.095 211.627C172.195 203.301 189.375 189.202 201.462 171.113C213.549 153.023 220 131.756 220 110C220 80.8262 208.411 52.8473 187.782 32.2183C167.153 11.5893 139.174 0 110 0Z" fill="currentColor"/>
    <path d="M167.954 110L76.5278 49.9119C76.6463 140.498 76.5278 96.0498 76.5278 170.088L167.954 110Z" fill="currentColor"/>
  </symbol>

  <symbol id="icon-pause-big" viewBox="0 0 220 220" fill="none">
    <path d="M110 8.89168C130.003 8.88778 149.558 14.816 166.191 25.9266C182.825 37.0372 195.79 52.831 203.446 71.3106C211.103 89.7901 213.107 110.125 209.206 129.744C205.304 149.363 195.672 167.384 181.528 181.528C167.384 195.672 149.363 205.304 129.744 209.206C110.125 213.107 89.7901 211.103 71.3106 203.446C52.8311 195.79 37.0372 182.825 25.9266 166.191C14.816 149.558 8.88783 130.003 8.89174 110C8.92833 83.1956 19.5925 57.4996 38.546 38.546C57.4996 19.5925 83.1956 8.92828 110 8.89168ZM110 0C88.2441 0 66.9767 6.45139 48.8873 18.5383C30.7979 30.6253 16.6989 47.805 8.37331 67.9048C0.0476618 88.0047 -2.1307 110.122 2.11367 131.46C6.35805 152.798 16.8345 172.398 32.2183 187.782C47.602 203.166 67.2022 213.642 88.5401 217.886C109.878 222.131 131.995 219.952 152.095 211.627C172.195 203.301 189.375 189.202 201.462 171.113C213.549 153.023 220 131.756 220 110C220 80.8262 208.411 52.8473 187.782 32.2183C167.153 11.5893 139.174 0 110 0Z" fill="currentColor"/>
    <rect x="80" y="60" width="20" height="100" rx="2" fill="currentColor"/>
    <rect x="120" y="60" width="20" height="100" rx="2" fill="currentColor"/>
  </symbol>

  <symbol id="icon-play-small" viewBox="0 0 23 31" fill="none">
    <path d="M23 15.5053L0 0C0 23.3683 0 11.8996 0 31L23 15.5053Z" fill="currentColor"/>
  </symbol>

  <symbol id="icon-pause-small" viewBox="0 0 23 31" fill="none">
    <rect x="0" y="0" width="7" height="31" fill="currentColor"/>
    <rect x="16" y="0" width="7" height="31" fill="currentColor"/>
  </symbol>

  <symbol id="icon-sound-level" viewBox="0 0 38 31" fill="none">
    <path d="M19.3511 0C18.875 0 18.4622 0.161587 18.1138 0.484761L8.9609 8.97374H1.76C1.28282 8.97374 0.871122 9.13533 0.522673 9.4585C0.174224 9.78167 0 10.1645 0 10.6061V20.3939C0 20.8355 0.174224 21.2183 0.522673 21.5415C0.871122 21.8647 1.28393 22.0263 1.76 22.0263H8.9609L18.1138 30.5152C18.4622 30.8384 18.8739 31 19.3511 31C19.8283 31 20.24 30.8384 20.5884 30.5152C20.9369 30.1921 21.1111 29.8102 21.1111 29.3677V1.63234C21.1111 1.1908 20.9369 0.807935 20.5895 0.484761C20.2422 0.161587 19.8294 0 19.3522 0H19.3511Z" fill="currentColor"/>
    <path d="M29.5979 19.1322C30.3389 18.0151 30.7094 16.8082 30.7094 15.5103C30.7094 14.2125 30.3389 13.0014 29.5979 11.8751C28.8569 10.7487 27.8774 9.95512 26.6561 9.49425C26.4819 9.40952 26.2634 9.36612 26.0027 9.36612C25.5499 9.36612 25.1572 9.52422 24.8258 9.83939C24.4943 10.1566 24.3286 10.5431 24.3286 11.004C24.3286 11.3625 24.4331 11.6653 24.6432 11.9123C24.8532 12.1592 25.1044 12.3731 25.4011 12.5519C25.6966 12.7307 25.9932 12.927 26.2898 13.1409C26.5864 13.3548 26.8387 13.6565 27.0477 14.0492C27.2567 14.4419 27.3612 14.9286 27.3612 15.5083C27.3612 16.088 27.2567 16.5747 27.0477 16.9673C26.8387 17.36 26.5864 17.6628 26.2898 17.8756C25.9932 18.0885 25.6966 18.2859 25.4011 18.4646C25.1044 18.6434 24.8522 18.8573 24.6432 19.1043C24.4342 19.3512 24.3286 19.655 24.3286 20.0126C24.3286 20.4734 24.4954 20.8609 24.8258 21.1771C25.1572 21.4913 25.5488 21.6514 26.0027 21.6514C26.2634 21.6514 26.4819 21.6091 26.6561 21.5233C27.8763 21.0449 28.8569 20.2471 29.5979 19.1291V19.1322Z" fill="currentColor"/>
    <path d="M35.7563 22.8582C37.252 20.6112 37.9999 18.1571 37.9999 15.499C37.9999 12.8419 37.252 10.3899 35.7563 8.13971C34.2605 5.89271 32.2811 4.25452 29.819 3.23039C29.591 3.14417 29.362 3.10001 29.1329 3.10001C28.6759 3.10001 28.2796 3.26509 27.9451 3.59525C27.6105 3.92541 27.4443 4.31551 27.4443 4.76764C27.4443 5.44479 27.7874 5.95685 28.4735 6.30489C29.4579 6.80855 30.1269 7.19023 30.4785 7.45099C31.7803 8.38891 32.7967 9.56445 33.5265 10.9797C34.2562 12.395 34.6216 13.9007 34.6216 15.5C34.6216 17.0972 34.2562 18.6039 33.5265 20.0203C32.7967 21.4356 31.7803 22.6111 30.4785 23.549C30.1269 23.8098 29.4579 24.1915 28.4735 24.6951C27.7874 25.0432 27.4443 25.5542 27.4443 26.2324C27.4443 26.6835 27.6116 27.0746 27.9451 27.4048C28.2785 27.7349 28.6833 27.9 29.1585 27.9C29.3694 27.9 29.59 27.8558 29.818 27.7696C32.28 26.7444 34.2605 25.1084 35.7552 22.8593L35.7563 22.8582Z" fill="currentColor"/>
  </symbol>

  <symbol id="icon-sound-off" viewBox="0 0 38 31" fill="none">
    <path d="M19.3511 0C18.875 0 18.4622 0.161587 18.1138 0.484761L8.9609 8.97374H1.76C1.28282 8.97374 0.871122 9.13533 0.522673 9.4585C0.174224 9.78167 0 10.1645 0 10.6061V20.3939C0 20.8355 0.174224 21.2183 0.522673 21.5415C0.871122 21.8647 1.28393 22.0263 1.76 22.0263H8.9609L18.1138 30.5152C18.4622 30.8384 18.8739 31 19.3511 31C19.8283 31 20.24 30.8384 20.5884 30.5152C20.9369 30.1921 21.1111 29.8102 21.1111 29.3677V1.63234C21.1111 1.1908 20.9369 0.807935 20.5895 0.484761C20.2422 0.161587 19.8294 0 19.3522 0H19.3511Z" fill="currentColor"/>
    <path d="M36.2 10.8L34.4 9L28 15.4L21.6 9L19.8 10.8L26.2 17.2L19.8 23.6L21.6 25.4L28 19L34.4 25.4L36.2 23.6L29.8 17.2L36.2 10.8Z" fill="currentColor"/>
  </symbol>

  <symbol id="icon-full-screen" viewBox="0 0 35 35" fill="none">
    <path d="M30.6055 30.7513H22.4097V34.8638H34.7083V22.5069H30.6055V30.7513Z" fill="currentColor"/>
    <path d="M4.10278 22.5069H0V34.8638H12.2986V30.7513H4.10278V22.5069Z" fill="currentColor"/>
    <path d="M0 12.3569H4.10278V4.12222H12.2986V0H0V12.3569Z" fill="currentColor"/>
    <path d="M22.4097 0V4.12222H30.6055V12.3569H34.7083V0H22.4097Z" fill="currentColor"/>
  </symbol>

</svg>
